<?xml version="1.0" standalone="no"?>
<!DOCTYPE svg PUBLIC "-//W3C//DTD SVG 20010904//EN"
 "http://www.w3.org/TR/2001/REC-SVG-20010904/DTD/svg10.dtd">
<svg version="1.0" xmlns="http://www.w3.org/2000/svg"
 width="535.000000pt" height="534.000000pt" viewBox="0 0 535.000000 534.000000"
 preserveAspectRatio="xMidYMid meet">

<g transform="translate(0.000000,534.000000) scale(0.100000,-0.100000)"
fill="#000000" stroke="none">
<path d="M2123 2273 c-442 -2 -803 -5 -803 -8 0 -3 77 -120 170 -260 94 -139
170 -259 170 -265 0 -6 -74 -121 -165 -256 -91 -134 -168 -251 -171 -259 -5
-13 146 -15 1359 -15 779 0 1368 4 1371 9 3 5 -2 19 -13 32 -10 13 -88 129
-174 257 l-157 232 175 263 175 262 -307 6 c-170 4 -425 6 -568 5 -143 0 -621
-2 -1062 -3z m5 -105 c16 -16 15 -83 -1 -96 -7 -6 -35 -12 -62 -14 l-50 -3 -1
-365 c-1 -201 -2 -371 -3 -377 -1 -9 -19 -13 -55 -13 -43 0 -56 4 -60 18 -3 9
-7 180 -8 379 l-3 362 -60 3 -60 3 -3 43 c-5 71 -2 72 187 72 117 0 171 -4
179 -12z m553 -3 c95 -34 125 -105 116 -273 -10 -170 -46 -218 -175 -230 l-67
-7 -1 -150 c0 -82 -3 -163 -7 -178 -7 -27 -10 -28 -65 -25 l-57 3 -2 424 c-2
294 1 429 9 438 15 19 193 17 249 -2z m425 7 c11 -7 25 -75 44 -217 5 -44 26
-194 46 -333 19 -139 34 -267 32 -285 -3 -30 -5 -32 -49 -35 -30 -2 -50 2 -57
11 -7 8 -17 52 -23 98 -16 116 -19 121 -82 117 l-52 -3 -13 -90 c-19 -129 -23
-135 -76 -135 -24 0 -48 6 -55 13 -8 10 -3 67 19 218 16 112 32 215 36 229 3
14 8 41 10 60 15 132 48 337 56 348 11 13 145 17 164 4z m222 -5 c6 -7 28 -98
49 -201 24 -119 40 -181 45 -169 4 10 21 94 38 187 16 93 35 175 41 183 8 9
28 13 58 11 69 -4 70 13 -35 -428 -30 -128 -34 -161 -34 -282 0 -75 -3 -143
-6 -152 -5 -12 -20 -16 -59 -16 -65 0 -65 0 -65 160 1 110 -3 127 -72 400 -41
161 -69 293 -65 303 8 21 89 24 105 4z"/>
<path d="M2550 1943 c0 -133 5 -160 29 -166 25 -5 70 13 81 33 13 25 13 159
-1 199 -13 36 -35 51 -78 51 l-31 0 0 -117z"/>
<path d="M3012 1893 c-15 -80 -31 -236 -25 -245 2 -5 22 -8 45 -8 l41 0 -8 53
c-4 28 -13 96 -19 149 -6 53 -14 99 -17 102 -3 4 -11 -19 -17 -51z"/>
</g>
</svg>
