<?xml version="1.0" encoding="utf-8"?>
<!-- Generator: Adobe Illustrator 24.1.2, SVG Export Plug-In . SVG Version: 6.00 Build 0)  -->
<svg version="1.1" id="Layer_1" xmlns="http://www.w3.org/2000/svg" xmlns:xlink="http://www.w3.org/1999/xlink" x="0px" y="0px"
	 viewBox="0 0 924.6 246.3" style="enable-background:new 0 0 924.6 246.3;" xml:space="preserve">
<style type="text/css">
	.st0{fill:#00A3FF;}
</style>
<g>
	<path class="st0" d="M95.5,78.1c-7.9-14.3-21.9-21.6-39.9-21.6c-14.5,0-27.5,5.3-36.7,15.8v-4.8c0-5.2-4.3-9.5-9.5-9.5
		S0,62.3,0,67.6v110.9c0,5.2,4.3,9.5,9.5,9.5s9.5-4.3,9.5-9.5V108c0-22.7,12.9-34.6,32.5-34.6C71,73.4,83.4,85,83.4,108v70.5
		c0,5.2,4.3,9.5,9.5,9.5c5.3,0,9.5-4.3,9.5-9.5v-72.6c0-20.6,13.5-32.5,32.5-32.5c19.5,0,31.9,11.6,31.9,34.6v70.5
		c0,5.2,4.3,9.5,9.5,9.5s9.5-4.3,9.5-9.5v-73.6c0-15-4.7-27.2-14-36.2c-7.9-7.7-19.5-12.1-33.5-12.1
		C120.1,56.5,105.6,63.9,95.5,78.1"/>
	<path class="st0" d="M238.9,163.1c-9.8-9.8-10.6-25.6-10.6-40.1c0-14.8,1.1-30.6,10.6-40.1c6.3-6.3,14.3-9.5,23.5-9.5
		c9.2,0,17.4,3.2,23.8,9.5c9.5,9.5,10.3,25.3,10.3,40.1c0,14.5-0.8,30.3-10.3,40.1c-6.3,6.3-14.5,9.5-23.8,9.5
		S245.2,169.5,238.9,163.1 M225.1,71.3c-13.2,13.2-15.8,31.7-15.8,51.7c0,20.1,2.6,38.3,15.8,51.7c9,9.2,21.4,14.8,37.2,14.8
		s28.2-5.5,37.2-14.8c13.2-13.5,15.8-31.7,15.8-51.7c0-20.1-2.6-38.5-15.8-51.7c-9-9.2-21.4-14.8-37.2-14.8S234.1,62,225.1,71.3"/>
	<path class="st0" d="M340.2,67.6v143.1c0,12.7-4.2,19-17.4,19h-2c-4.6,0-8.3,3.7-8.3,8.3s3.7,8.3,8.3,8.3h5.4c22.7,0,33-15,33-34.8
		V67.6c0-5.2-4.3-9.5-9.5-9.5S340.2,62.3,340.2,67.6"/>
	<path class="st0" d="M399.3,151c0-15.3,9.8-23,29.3-23h36.2v14c0,10.8-2.1,18.2-6.6,22.4c-8.4,7.7-17.9,8.7-28.8,8.7
		C408.6,173.2,399.3,166,399.3,151 M392,69.1c-3.6,3.5-3.5,9.3,0.2,12.7c3.4,3.1,8.6,3.1,11.9,0c6.7-6.3,14.6-8.9,27.5-8.9
		c24,0,33.3,9.8,33.3,28.5v12.4H426c-29,0-45.1,14.5-45.1,37.5c0,10.3,3.2,20.1,9.8,26.4c9,8.7,18.7,11.9,36.7,11.9
		c17.4,0,27.2-3.7,37.5-14v2.9c0,5.2,4.3,9.5,9.5,9.5s9.5-4.3,9.5-9.5V99.8c0-28-16.9-43.3-52-43.3C414.2,56.5,402.1,59.6,392,69.1"
		/>
	<path class="st0" d="M596,163.1c-9.8-9.8-10.6-25.6-10.6-40.1c0-14.8,1.1-30.6,10.6-40.1c6.3-6.3,14.3-9.5,23.5-9.5
		s17.4,3.2,23.8,9.5c9.5,9.5,10.3,25.3,10.3,40.1c0,14.5-0.8,30.3-10.3,40.1c-6.3,6.3-14.5,9.5-23.8,9.5S602.3,169.5,596,163.1
		 M582.3,71.3c-13.2,13.2-15.8,31.7-15.8,51.7c0,20.1,2.6,38.3,15.8,51.7c9,9.2,21.4,14.8,37.2,14.8s28.2-5.5,37.2-14.8
		c13.2-13.5,15.8-31.7,15.8-51.7c0-20.1-2.6-38.5-15.8-51.7c-9-9.2-21.4-14.8-37.2-14.8C603.6,56.5,591.2,62,582.3,71.3"/>
	<path class="st0" d="M720,163.1c-9.8-9.8-10.6-25.6-10.6-40.1c0-14.8,1.1-30.6,10.6-40.1c6.3-6.3,14.3-9.5,23.5-9.5
		s17.4,3.2,23.8,9.5c9.5,9.5,10.3,25.3,10.3,40.1c0,14.5-0.8,30.3-10.3,40.1c-6.3,6.3-14.5,9.5-23.8,9.5
		C734.3,172.6,726.4,169.5,720,163.1 M706.3,71.3c-13.2,13.2-15.8,31.7-15.8,51.7c0,20.1,2.6,38.3,15.8,51.7
		c9,9.2,21.4,14.8,37.2,14.8s28.2-5.5,37.2-14.8c13.2-13.5,15.8-31.7,15.8-51.7c0-20.1-2.6-38.5-15.8-51.7
		c-9-9.2-21.4-14.8-37.2-14.8C727.7,56.5,715.3,62,706.3,71.3"/>
	<path class="st0" d="M840.4,123c0-25.3,4.2-49.6,32.7-49.6c28.2,0,32.5,24.3,32.5,49.6s-4.2,49.6-32.5,49.6
		C844.6,172.6,840.4,148.3,840.4,123 M840.4,73.4v-5.8c0-5.2-4.3-9.5-9.5-9.5l0,0c-5.2,0-9.5,4.3-9.5,9.5v168.9
		c0,5.2,4.3,9.5,9.5,9.5l0,0c5.2,0,9.5-4.3,9.5-9.5v-63.9c10.8,13.5,22.4,16.9,36.7,16.9c13.5,0,24.8-4.5,31.7-11.3
		c12.9-13.2,15.8-34.3,15.8-55.2s-2.9-42.2-15.8-55.2c-6.9-6.9-18.2-11.4-31.7-11.4C862.6,56.5,851.2,59.9,840.4,73.4"/>
	<path class="st0" d="M546.6,187.9c-22.7,0-33-14.8-33-34.6V9.5c0-5.2,4.3-9.5,9.5-9.5s9.5,4.3,9.5,9.5v143.1c0,12.7,4.2,19,17.4,19
		h2.1c4.5,0,8.2,3.7,8.2,8.2s-3.7,8.2-8.2,8.2h-5.5V187.9z"/>
</g>
</svg>
